<?xml version="1.0" standalone="no"?>
<!DOCTYPE svg PUBLIC "-//W3C//DTD SVG 20010904//EN"
 "http://www.w3.org/TR/2001/REC-SVG-20010904/DTD/svg10.dtd">
<svg version="1.0" xmlns="http://www.w3.org/2000/svg"
 width="400.000000pt" height="400.000000pt" viewBox="0 0 400.000000 400.000000"
 preserveAspectRatio="xMidYMid meet">

<g transform="translate(0.000000,400.000000) scale(0.100000,-0.100000)"
fill="currentColor" stroke="none">
<path d="M1775 3764 c-1101 -148 -1799 -1235 -1474 -2297 181 -591 665 -1050
1269 -1202 902 -227 1831 281 2126 1162 330 986 -248 2045 -1256 2298 -208 53
-458 67 -665 39z m410 -94 c580 -67 1076 -415 1331 -935 232 -474 232 -1006 0
-1480 -255 -519 -751 -868 -1331 -935 -693 -79 -1385 303 -1691 935 -232 479
-232 1006 0 1480 311 635 997 1014 1691 935z"/>
<path d="M1854 3086 c-163 -31 -292 -96 -403 -205 -124 -120 -206 -330 -171
-436 16 -47 66 -104 107 -121 42 -18 115 -18 156 0 49 20 80 64 121 169 90
231 194 310 388 294 174 -15 285 -131 276 -288 -3 -59 -9 -75 -42 -124 -22
-31 -75 -88 -120 -126 -130 -114 -264 -249 -297 -300 -44 -69 -69 -151 -76
-245 -7 -98 11 -158 58 -198 71 -60 191 -55 248 9 32 37 33 40 55 138 26 113
54 154 183 273 232 213 307 294 347 375 20 41 41 103 47 139 27 170 -43 359
-180 481 -64 58 -204 129 -301 154 -89 22 -304 28 -396 11z"/>
<path d="M1906 1315 c-59 -21 -114 -81 -132 -142 -29 -100 6 -195 90 -248 43
-26 59 -30 121 -30 62 0 78 4 120 30 65 40 97 101 97 182 0 71 -11 99 -54 148
-60 69 -153 92 -242 60z"/>
</g>
</svg>
